<?xml version="1.0" ?><!DOCTYPE svg  PUBLIC '-//W3C//DTD SVG 1.1//EN'  'http://www.w3.org/Graphics/SVG/1.1/DTD/svg11.dtd'><svg height="2048px" style="shape-rendering:geometricPrecision; text-rendering:geometricPrecision; image-rendering:optimizeQuality; fill-rule:evenodd; clip-rule:evenodd" viewBox="0 0 2048 2048" width="2048px" xml:space="preserve" xmlns="http://www.w3.org/2000/svg" xmlns:xlink="http://www.w3.org/1999/xlink"><defs><style type="text/css">
   <![CDATA[
    .fil2 {fill:none}
    .fil1 {fill:#E0817A}
    .fil0 {fill:#333333;fill-rule:nonzero}
   ]]>
  </style></defs><g id="Layer_x0020_1"><path class="fil0" d="M505.272 1005.08c-10.1717,16.311 -17.7201,51.3095 -22.0795,91.9394 -4.85079,45.2233 -5.48386,96.4843 -1.26614,137.032l0.00590552 -0.0011811c1.39134,12.8102 3.27166,24.5941 5.67993,34.7575l0 0.0625985c2.06575,8.72481 4.44685,15.8835 7.14922,20.9764 3.53859,6.70985 8.18977,12.0165 13.5662,15.6402 5.04685,3.40158 10.748,5.32559 16.7398,5.50985l0.438189 0c4.01221,0.229134 7.68308,-0.120473 36.1205,-8.67402 31.911,-9.59765 88.6524,-27.7571 198.117,-62.9717l0.0614174 0c0.277559,-0.0874016 96.2989,-30.5847 96.3615,-30.6154l3.18662 -1.24961c8.54528,-2.18386 15.7347,-7.2319 20.9339,-14.2654 5.55237,-7.50945 8.96339,-17.3315 9.55867,-28.5213l0 -0.0625985c0.643701,-11.628 -1.97126,-22.4209 -7.14331,-31.1091 -4.91103,-8.24883 -12.1784,-14.6492 -21.1394,-18.013l-0.437008 -0.125197c-0.188977,-0.0755906 -61.0252,-26.9776 -63.3792,-26.9776l-6.0626 -1.25079c-117.889,-48.6733 -179.686,-74.0434 -214.361,-87.5977 -31.3666,-12.2599 -35.778,-13.1669 -39.7677,-13.2012l-0.499607 0c-6.163,-0.258662 -11.9575,1.15748 -17.1437,4.11496 -5.49567,3.13347 -10.4705,8.04331 -14.6717,14.5831l0.0318898 0.0200788zm-53.83 88.5638c4.82835,-45.0024 13.8862,-84.8847 26.7047,-105.439l0.125197 -0.124016c7.08544,-11.1 15.8717,-19.6382 25.891,-25.3524 10.3784,-5.91851 21.9189,-8.75434 34.1422,-8.24174l0 0.00590552c7.74568,0.113386 15.0933,1.42559 50.6422,15.3213 33.0059,12.9012 95.2796,38.4756 214.862,87.8481l-0.297638 0.724016c17.6433,6.57284 69.4418,27.3095 69.6142,27.3792l-0.0141732 0.0354331c15.7665,6.02953 28.4634,17.1957 36.9662,31.4776 8.37993,14.0764 12.6378,31.1256 11.6433,49.1091l-0.00354331 0c-0.946064,17.5677 -6.58701,33.3638 -15.8055,45.8327 -9.55276,12.9225 -22.8331,22.2142 -38.6835,26.2654l-0.0437008 -0.17126c-17.0091,5.56063 -95.6587,30.7429 -97.6985,31.3949l0.00590552 0.0177165c-111.423,35.8441 -168.815,54.2185 -198.741,63.2197 -33.4004,10.0465 -39.2847,10.3665 -46.9961,9.92599l0.0011811 -0.0153543c-12.1394,-0.454725 -23.4685,-4.24134 -33.3036,-10.8709 -9.66851,-6.51615 -17.8784,-15.7701 -23.941,-27.2646 -4.01929,-7.5756 -7.33819,-17.276 -10.0099,-28.5425l-0.0141732 0.00354331c-2.6504,-11.185 -4.73859,-24.3343 -6.30591,-38.7567l0 -0.0625985c-4.44803,-42.7004 -3.80906,-96.4642 1.26024,-143.719z"/><path class="fil0" d="M1007.81 1721.19c1.43386,-4.15748 2.24292,-7.92875 2.86181,-37.6843 0.673229,-32.3445 0.941339,-92.1851 1.24488,-208.069l0 -0.0625985c0.0011811,-0.27874 0.509056,-92.0068 0.750001,-104.449l-0.0814961 -0.00472441c0.523229,-8.84764 -2.09764,-17.3516 -7.22599,-24.5681 -5.4,-7.59686 -13.6051,-13.8709 -23.9445,-17.8323l-0.0625985 -0.0625985c-10.7185,-4.12914 -21.7618,-4.94292 -31.6654,-2.70118 -9.34253,2.11417 -17.6717,7.01693 -23.6292,14.4579l-0.249213 0.249213c-0.121654,0.144095 -31.6736,40.0878 -49.9937,56.3953l1.38898 1.18819c-82.4776,96.782 -125.632,147.682 -149.388,176.692 -21.4134,26.1496 -23.7024,30.2185 -25.1339,34.2744 -0.832678,2.3563 -1.42677,4.80237 -1.73504,7.31457 -0.287008,2.3374 -0.320079,4.65355 -0.068504,6.92127l0 0.187795c0.338977,3.41339 1.31339,6.90827 2.87481,10.3937 1.63937,3.66024 3.99922,7.3689 7.02756,11.0339l-0.00472441 0.00354331c17.5051,20.7756 70.7091,47.5181 126.912,68.1851 56.2182,20.6729 114.056,34.7551 140.782,30.1973l0.00472441 0.0271654c7.61812,-1.43032 14.0433,-4.19174 19.0406,-8.0941 4.63937,-3.62362 8.15434,-8.34095 10.3347,-13.9807l-0.0389764 -0.0129921zm34.7374 -37.0583c-0.724016,34.8567 -2.07166,40.4292 -4.48701,47.4331l-0.187795 0.375591c-4.26969,11.4484 -11.3291,21.0236 -20.7331,28.3677 -9.1004,7.1067 -20.2807,12.0142 -33.1087,14.3799l-0.187795 0.0625985c-32.3268,5.51339 -96.4867,-9.38741 -157.156,-31.6973 -60.7241,-22.3288 -119.348,-52.5933 -140.469,-77.752l-0.0614174 -0.0625985c-4.76693,-5.76733 -8.63741,-11.9575 -11.5276,-18.4087 -2.92914,-6.53977 -4.78465,-13.2874 -5.48268,-20.0823l-0.0188977 0.00236221c-0.544489,-4.89685 -0.498426,-9.67205 0.068504,-14.2961 0.585827,-4.76221 1.73386,-9.46536 3.36024,-14.0658 2.65394,-7.5189 5.84528,-13.7764 30.5103,-43.8981 22.324,-27.261 65.8583,-78.5906 149.887,-177.193l4.79528 -5.62559 7.32993 0c10.0016,0 33.9827,-47.1024 36.189,-51.391l-0.0838583 -0.0673229c10.5874,-13.2225 25.2095,-21.8929 41.504,-25.5815 15.8799,-3.59292 33.352,-2.38229 50.0882,4.04764l0.0129921 -0.034252c16.3417,6.26221 29.5713,16.5449 38.5713,29.2063 9.313,13.1043 14.0646,28.6547 13.1008,44.9445l-0.125197 1.3748c-0.0791339,0.539764 -0.532678,98.7579 -0.543308,101.265l0 0.0625985c-0.304725,116.332 -0.572835,176.369 -1.24488,208.632z"/><path class="fil0" d="M1392.23 1630.81c25.1504,-10.0406 67.0028,-52.304 104.014,-99.3816 37.0004,-47.0646 68.2052,-97.7587 72.0697,-124.67 1.10669,-7.74095 0.506693,-14.791 -1.6441,-20.8453 -2.01496,-5.67048 -5.47205,-10.5709 -10.2165,-14.4106 -3.31772,-2.40709 -7.46339,-4.53544 -34.7504,-14.0362 -29.6315,-10.3169 -86.6894,-29.1673 -197.616,-65.5772 -0.257481,-0.0838583 -82.9902,-27.463 -98.869,-33.1713l-0.0968505 0.250394c-8.19331,-3.17481 -17.0917,-3.25394 -25.5992,-0.558662 -8.91142,2.82284 -17.4307,8.72009 -24.4181,17.3551l-0.0625985 0.0625985c-7.27205,8.89016 -11.4484,19.0736 -12.3284,29.1662 -0.846851,9.69686 1.33583,19.3347 6.72993,27.6l0.187795 0.311811 39.0591 63.3886 0.0625985 0c65.9729,107.193 101.286,164.286 120.647,194.489 18.789,29.3126 22.7551,34.1079 26.0835,36.704l0.0625985 0c4.84725,3.80551 10.3335,6.02481 16.1811,6.64607 6.31063,0.669686 13.2284,-0.434646 20.4414,-3.32244l0.0625985 0zm129.138 -79.6312c-39.8882,50.7378 -86.7296,96.9828 -117.336,109.233l0.00944883 0.022441c-12.1323,4.8567 -24.2126,6.66733 -35.6918,5.44843 -11.8618,-1.26024 -22.9004,-5.69174 -32.5559,-13.2721l0.0236221 -0.0307087c-6.18071,-4.82953 -11.9988,-11.3256 -33.2941,-44.5489 -20.7709,-32.4024 -55.9689,-89.2879 -121.023,-194.987l0.0448819 -0.0283465 -38.85 -63.0508 -0.00354331 0.00236221c-9.45591,-14.491 -13.3039,-31.1421 -11.8559,-47.7237 1.42677,-16.3583 7.99843,-32.6327 19.3996,-46.5969l-0.00708662 -0.00590552c11.0162,-13.6134 24.8681,-23.0445 39.6662,-27.7323 15.2658,-4.83662 31.4965,-4.59095 46.7244,1.30984l2.5004 1.24961c0.20315,0.122835 94.5674,30.9567 94.8402,31.0453 109.812,36.0437 166.74,54.8599 198.242,65.8276 32.7532,11.4036 37.7055,14.4154 43.6477,18.828l0.500788 0.375591c9.49961,7.62638 16.4138,17.4012 20.4437,28.7433 3.85512,10.8496 4.99607,23.0244 3.1441,35.9705 -4.68307,32.6044 -38.6256,89.1107 -78.5705,139.921z"/><path class="fil0" d="M1280.46 1081.97c124.75,-30.1772 189.737,-46.1256 225.23,-55.4563 31.7929,-8.35749 36.4359,-10.3642 39.9981,-12.639l-0.00708662 -0.00944883c5.05867,-3.44528 8.8689,-8.02323 11.2843,-13.4728 2.5878,-5.83937 3.69803,-12.8067 3.18071,-20.628l-0.0625985 -1.00039c0,-0.328347 0.0200788,-0.722835 0.0472441,-1.13858 -3.30945,-28.3547 -30.7902,-80.8501 -63.8812,-129.803 -33.0083,-48.8315 -70.741,-92.9505 -94.6548,-104.713 -7.06182,-3.37087 -13.9949,-4.9441 -20.4815,-4.70197 -6.01182,0.22441 -11.7744,2.07992 -16.9984,5.57835l-0.0625985 0.0625985c-3.34607,2.21221 -6.66497,5.51575 -24.9437,29.6729 -20.1225,26.5949 -55.3347,74.7048 -122.191,166.146 -0.168898,0.229134 -55.1682,75.4737 -62.1402,84.1749l0.0307087 0.0259843c-5.59843,6.80079 -8.43662,15.124 -8.5004,23.8571 -0.0673229,9.27757 2.94331,19.1528 9.04253,28.4457l0 0.0625985c6.34252,9.78544 14.7851,16.9984 24.0106,21.0248 8.68347,3.78898 18.0886,4.72323 26.9858,2.23701l34.5827 -9.66851 -0.851575 1.70433c11.5394,-2.91496 24.6709,-6.07441 40.3748,-9.79135l0.00708662 0.0307087zm233.356 -24.5823c-34.5496,9.08268 -99.8422,25.0996 -225.989,55.6134l-0.125197 0.0625985c-20.863,4.93819 -36.6177,8.73072 -47.4792,11.5512 -11.6398,3.02244 -19.7953,5.40355 -25.4008,7.48701l-0.961418 -1.39252c-15.8433,4.17992 -32.2701,2.53347 -47.2489,-4.00276 -14.8122,-6.46418 -28.1752,-17.7414 -37.9831,-32.8559l-0.0283465 0.0188977c-9.56339,-14.5736 -14.2819,-30.5835 -14.1685,-46.0701 0.116929,-16.0347 5.37402,-31.3736 15.7524,-43.9807l0.624804 -0.687402c1.73032,-1.86851 60.1843,-81.9036 60.3579,-82.1386 67.4989,-92.3198 103,-140.828 122.441,-166.521 21.2847,-28.1315 26.3894,-32.7969 32.8193,-37.0477l0.00944883 0.0141732c10.2319,-6.8315 21.6059,-10.4599 33.5516,-10.9063 11.5795,-0.432284 23.5583,2.18977 35.3788,7.8378l0.125197 0.0625985c29.1331,14.2406 71.576,62.7308 107.256,115.515 35.4815,52.487 65.1272,110.404 69.0993,144.136 0.373229,2.11536 0.322441,3.44646 0.23504,4.71142 0.690945,12.6248 -1.34646,24.2681 -5.8689,34.4717 -4.85197,10.9465 -12.4571,20.1106 -22.5331,26.9729l-0.312992 0.187795c-6.3626,4.14685 -12.2055,7.14331 -49.552,16.9606zm78.2658 -78.6237l0.0011811 0.022441 0.0011811 -0.022441 -0.00236221 0zm-394.812 127.916c-0.172441,0.261024 -0.923623,1.26496 -0.923623,1.26496l2.7437 1.37244 -1.82008 -2.6374z"/><path class="fil0" d="M1016.12 890.977c-2.10354,-48.0615 -10.3913,-179.561 -18.711,-303.659 -8.43426,-125.837 -16.8484,-243.35 -18.7477,-256.641 -1.8248,-5.97048 -5.0315,-11.0693 -9.42048,-15.091 -4.86733,-4.45985 -11.3445,-7.78938 -19.1882,-9.74292 -29.3481,-7.28741 -103.448,5.75079 -176.141,26.1721 -72.4808,20.361 -142.029,47.6079 -162.839,68.8938 -5.44607,5.71182 -9.15355,11.9209 -11.0693,18.1358 -1.63228,5.29961 -1.96654,10.6311 -0.961418,15.6402 5.47559,10.0807 32.0622,52.6311 66.43,107.019 38.7768,61.3654 82.976,130.778 119.854,188.619l0.0625985 0 122.587 193.436 0.0625985 0.186614c38.4118,62.2536 66.1465,53.6894 75.1902,50.8961l0.0200788 -0.00354331 0.0330709 -0.0330709c9.05552,-2.85473 36.3721,-11.4709 32.8394,-83.765l0 -0.0625985zm13.1646 -305.785c8.26536,123.294 16.5354,254.772 18.7087,304.348l0.00236221 0c4.73386,96.8623 -40.2886,111.06 -55.2142,115.766l-0.011811 -0.0389764 -0.0401575 0.0129921 -0.138189 0.0236221 0.011811 0.0389764c-14.8193,4.57678 -60.2493,18.6036 -111.589,-64.4847l-0.0389764 0.0248032 -122.587 -193.436 0.0448819 -0.0283465c-39.5126,-61.9737 -85.6784,-134.46 -119.961,-188.713 -36.8965,-58.389 -65.1036,-103.612 -68.8678,-111.337l-1.06181 -2.9374c-2.96103,-11.276 -2.60669,-23.1839 0.960237,-34.7611 3.3567,-10.8874 9.54804,-21.4417 18.476,-30.7902l0.124016 -0.125197c24.704,-25.4221 100.062,-55.8225 177.184,-77.4875 77.1485,-21.6721 157.612,-35.0575 192.391,-26.4225 13.0606,3.25394 24.2292,9.14883 33.0638,17.2429 9.11457,8.3504 15.5847,18.8646 18.9543,31.0748l0.375591 1.5626c1.87795,10.9524 10.5756,131.622 19.213,260.468z"/><path class="fil1" d="M1016.12 890.977c-2.10354,-48.0615 -10.3913,-179.561 -18.711,-303.659 -8.43426,-125.837 -16.8484,-243.35 -18.7477,-256.641 -1.8248,-5.97048 -5.0315,-11.0693 -9.42048,-15.091 -4.86733,-4.45985 -11.3445,-7.78938 -19.1882,-9.74292 -29.3481,-7.28741 -103.448,5.75079 -176.141,26.1721 -72.4808,20.361 -142.029,47.6079 -162.839,68.8938 -5.44607,5.71182 -9.15355,11.9209 -11.0693,18.1358 -1.63228,5.29961 -1.96654,10.6311 -0.961418,15.6402 5.47559,10.0807 32.0622,52.6311 66.43,107.019 38.7768,61.3654 82.976,130.778 119.854,188.619l0.0625985 0 122.587 193.436 0.0625985 0.186614c38.4118,62.2536 66.1465,53.6894 75.1902,50.8961l0.0200788 -0.00354331 0.0330709 -0.0330709c9.05552,-2.85473 36.3721,-11.4709 32.8394,-83.765l0 -0.0625985z"/><path class="fil1" d="M1545.69 1013.88l0 0zm-206.58 -240.154c-20.1225,26.5949 -55.3347,74.7048 -122.191,166.146 -0.168898,0.229134 -55.1682,75.4737 -62.1402,84.1749l0.0307087 0.0259843c-5.59843,6.80079 -8.43662,15.124 -8.5004,23.8571 -0.0673229,9.27757 2.94331,19.1528 9.04253,28.4457l0 0.0625985c6.34252,9.78544 14.7851,16.9984 24.0106,21.0248 8.68347,3.78898 18.0886,4.72323 26.9858,2.23701l34.5827 -9.66851 -0.851575 1.70433c11.5394,-2.91496 24.6709,-6.07441 40.3748,-9.79135l0.00708662 0.0307087c124.75,-30.1772 189.737,-46.1256 225.23,-55.4563 31.7929,-8.35749 36.4359,-10.3642 39.991,-12.6484 5.05867,-3.44528 8.8689,-8.02323 11.2843,-13.4728 2.5878,-5.83937 3.69803,-12.8067 3.18071,-20.628l-0.0625985 -1.00039c0,-0.328347 0.0200788,-0.722835 0.0472441,-1.13858 -3.30945,-28.3547 -30.7902,-80.8501 -63.8812,-129.803 -33.0083,-48.8315 -70.741,-92.9505 -94.6548,-104.713 -7.06182,-3.37087 -13.9949,-4.9441 -20.4815,-4.70197 -6.01182,0.22441 -11.7744,2.07992 -16.9984,5.57835l-0.0625985 0.0625985c-3.34607,2.21221 -6.66497,5.51575 -24.9437,29.6729z"/><path class="fil1" d="M1324.09 1291.89c-0.257481,-0.0838583 -82.9902,-27.463 -98.869,-33.1713l-0.0968505 0.250394c-8.19331,-3.17481 -17.0917,-3.25394 -25.5992,-0.558662 -8.91142,2.82284 -17.4307,8.72009 -24.4181,17.3551l-0.0625985 0.0625985c-7.27205,8.89016 -11.4484,19.0736 -12.3284,29.1662 -0.846851,9.69686 1.33583,19.3347 6.72993,27.6l0.187795 0.311811 39.0591 63.3886 0.0625985 0c65.9729,107.193 101.286,164.286 120.647,194.489 18.789,29.3126 22.7551,34.1079 26.0835,36.704l0.0625985 0c4.84725,3.80551 10.3335,6.02481 16.1811,6.64607 6.31063,0.669686 13.2284,-0.434646 20.4414,-3.32244l0.0625985 0c25.1504,-10.0406 67.0028,-52.304 104.014,-99.3816 37.0004,-47.0646 68.2052,-97.7587 72.0697,-124.67 1.10669,-7.74095 0.506693,-14.791 -1.6441,-20.8453 -2.01496,-5.67048 -5.47205,-10.5709 -10.2165,-14.4106 -3.31772,-2.40709 -7.46339,-4.53544 -34.7504,-14.0362 -29.6315,-10.3169 -86.6894,-29.1673 -197.616,-65.5772z"/><path class="fil1" d="M710.771 1644.86l0 0zm301.141 -169.494c0.0011811,-0.27874 0.509056,-92.0068 0.750001,-104.449l-0.0814961 -0.00472441c0.523229,-8.84764 -2.09764,-17.3516 -7.22599,-24.5681 -5.4,-7.59686 -13.6051,-13.8709 -23.9445,-17.8323l-0.0625985 -0.0625985c-10.7185,-4.12914 -21.7618,-4.94292 -31.6654,-2.70118 -9.34253,2.11417 -17.6717,7.01693 -23.6292,14.4579l-0.249213 0.249213c-0.121654,0.144095 -31.6736,40.0878 -49.9937,56.3953l1.38898 1.18819c-82.4776,96.782 -125.632,147.682 -149.388,176.692 -21.4134,26.1496 -23.7024,30.2185 -25.1339,34.2744 -0.832678,2.3563 -1.42677,4.80237 -1.73504,7.31457 -0.287008,2.3374 -0.320079,4.65355 -0.068504,6.92127l0 0.187795c0.338977,3.41339 1.31339,6.90827 2.87481,10.3937 1.63937,3.66024 3.99922,7.3689 7.02284,11.0374 17.5051,20.7756 70.7091,47.5181 126.912,68.1851 56.2182,20.6729 114.056,34.7551 140.782,30.1973l0.00472441 0.0271654c7.61812,-1.43032 14.0433,-4.19174 19.0406,-8.0941 4.63937,-3.62362 8.15434,-8.34095 10.3347,-13.9807l-0.0389764 -0.0129921c1.43386,-4.15748 2.24292,-7.92875 2.86181,-37.6843 0.673229,-32.3445 0.941339,-92.1851 1.24488,-208.069l0 -0.0625985z"/><path class="fil1" d="M481.927 1234.06l0 0zm277.878 5.29961l96.3615 -30.6154 3.18662 -1.24961c8.54528,-2.18386 15.7347,-7.2319 20.9339,-14.2654 5.55237,-7.50945 8.96339,-17.3315 9.55867,-28.5213l0 -0.0625985c0.643701,-11.628 -1.97126,-22.4209 -7.14331,-31.1091 -4.91103,-8.24883 -12.1784,-14.6492 -21.1394,-18.013l-0.437008 -0.125197c-0.188977,-0.0755906 -61.0252,-26.9776 -63.3792,-26.9776l-6.0626 -1.25079c-117.889,-48.6733 -179.686,-74.0434 -214.361,-87.5977 -31.3666,-12.2599 -35.778,-13.1669 -39.7677,-13.2012l-0.499607 0c-6.163,-0.258662 -11.9575,1.15748 -17.1437,4.11496 -5.49567,3.13347 -10.4705,8.04331 -14.6717,14.5831l0.0318898 0.0200788c-10.1717,16.311 -17.7201,51.3095 -22.0795,91.9394 -4.85079,45.2233 -5.48386,96.4843 -1.26024,137.03 1.39134,12.8102 3.27166,24.5941 5.67993,34.7575l0 0.0625985c2.06575,8.72481 4.44685,15.8835 7.14922,20.9764 3.53859,6.70985 8.18977,12.0165 13.5662,15.6402 5.04685,3.40158 10.748,5.32559 16.7398,5.50985l0.438189 0c4.01221,0.229134 7.68308,-0.120473 36.1205,-8.67402 31.911,-9.59765 88.6524,-27.7571 198.117,-62.9717l0.0614174 0z"/></g><rect class="fil2" height="2048" width="2048"/></svg>